# File created by Blade
# Date/Time:  Wed Jan 21 16:20:01 2015
# Frame Rate: 120.000 fps
#------------------------------------------------------
:FULLY-SPECIFIED
:DEGREES
280
root 18.962091 36.283891 -21.639672 -194.580582 46.306460 -182.354967
Spine 11.931974 44.120566 9.670001
Head 39.758448 37.526842 21.491456
LeftShoulder -21.564828 -23.109789 12.467162
LeftArm -38.321678 -6.621022 -22.845718
LeftForeArm -15.246886 0.000000 2.845129
LeftHand -7.137206 -0.000000 2.120915
LeftHandThumb1 -26.253704 0.000000 33.147579
RightShoulder -10.165481 -13.588373 11.098955
RightArm 16.848692 -6.512555 42.890587
RightForeArm -56.558035 -0.000000 80.436712
RightHand 2.716227 -0.000000 30.435788
RightHandThumb1 -24.326973 -0.000000 -32.862282
LeftUpLeg -75.014385 -34.932271 -15.519280
LeftLeg 93.264804 -0.000000 -0.000000
LeftFoot 27.431624 15.772879 -1.878404
LeftToeBase -173.803778 -0.000000 0.000000
RightUpLeg 17.175801 10.703476 6.344301
RightLeg 2.257572 -0.000000 -0.000000
RightFoot -12.565722 2.752122 15.632243
RightToeBase 32.226169 -0.000000 -0.000000
281
root 18.968926 36.291343 -21.675056 -194.689096 46.807228 -182.488116
Spine 11.783132 44.199438 9.608110
Head 40.265659 38.200372 21.874005
LeftShoulder -21.685068 -23.117933 12.630108
LeftArm -38.747548 -6.579663 -22.609398
LeftForeArm -15.777264 -0.000000 2.723120
LeftHand -7.144153 -0.000000 2.322282
LeftHandThumb1 -26.253704 0.000000 33.147579
RightShoulder -10.216950 -13.577884 11.037691
RightArm 16.784412 -6.471729 43.184891
RightForeArm -56.790340 0.000000 80.562051
RightHand 2.523322 -0.000000 30.612885
RightHandThumb1 -24.326973 -0.000000 -32.862282
LeftUpLeg -75.027424 -34.894729 -15.716950
LeftLeg 93.208178 -0.000000 -0.000000
LeftFoot 27.501126 15.808701 -1.827650
LeftToeBase -173.811477 -0.000000 0.000000
RightUpLeg 17.202934 10.944106 6.278864
RightLeg 2.288939 -0.000000 -0.000000
RightFoot -12.550138 2.951798 15.596694
RightToeBase 32.568529 -0.000000 -0.000000
282
root 18.973820 36.296641 -21.707566 -194.759227 47.246631 -182.576997
Spine 11.654078 44.221860 9.583501
Head 40.752846 38.884752 22.204578
LeftShoulder -21.798347 -23.125681 12.745026
LeftArm -39.155619 -6.551078 -22.347551
LeftForeArm -16.193187 -0.000000 2.674444
LeftHand -7.268390 -0.000000 2.431729
LeftHandThumb1 -26.253704 0.000000 33.147579
RightShoulder -10.247832 -13.566398 10.945567
RightArm 16.678137 -6.417416 43.480417
RightForeArm -57.041123 -0.000000 80.718309
RightHand 2.271021 -0.000000 30.744030
RightHandThumb1 -24.326973 -0.000000 -32.862282
LeftUpLeg -75.085074 -34.991075 -15.829882
LeftLeg 93.168911 -0.000000 -0.000000
LeftFoot 27.540679 15.794917 -1.805627
LeftToeBase -173.610051 -0.000000 0.000000
RightUpLeg 17.214222 11.149919 6.230881
RightLeg 2.323593 -0.000000 -0.000000
RightFoot -12.516119 3.173778 15.591122
RightToeBase 32.735863 -0.000000 -0.000000
283
root 18.984047 36.302546 -21.741121 -194.877213 47.695616 -182.672937
Spine 11.606731 44.303797 9.612050
Head 41.188457 39.543941 22.505356
LeftShoulder -21.845876 -23.174273 12.838952
LeftArm -39.522491 -6.476670 -22.130087
LeftForeArm -16.580617 -0.000000 2.537514
LeftHand -7.275132 -0.000000 2.392059
LeftHandThumb1 -26.253704 0.000000 33.147579
RightShoulder -10.318360 -13.540272 10.894656
RightArm 16.557230 -6.303670 43.727804
RightForeArm -57.160418 0.000000 80.939247
RightHand 2.226777 -0.000000 30.997704
RightHandThumb1 -24.326973 -0.000000 -32.862282
LeftUpLeg -75.071367 -35.017428 -16.006501
LeftLeg 93.146229 -0.000000 -0.000000
LeftFoot 27.419331 15.879456 -1.952047
LeftToeBase -173.904792 -0.000000 0.000000
RightUpLeg 17.277219 11.374980 6.199268
RightLeg 2.360120 -0.000000 -0.000000
RightFoot -12.451024 3.376093 15.600358
RightToeBase 32.639470 -0.000000 -0.000000
284
root 18.992903 36.305705 -21.773160 -194.981102 48.123317 -182.737534
Spine 11.574312 44.366557 9.661305
Head 41.541773 40.162035 22.764349
LeftShoulder -21.907772 -23.188784 12.942113
LeftArm -39.874007 -6.394487 -21.982244
LeftForeArm -17.036941 0.000000 2.462497
LeftHand -7.299766 -0.000000 2.503857
LeftHandThumb1 -26.253704 0.000000 33.147579
RightShoulder -10.408024 -13.525034 10.843222
RightArm 16.470311 -6.243258 43.913505
RightForeArm -57.419047 -0.000000 81.130585
RightHand 2.273510 -0.000000 31.225922
RightHandThumb1 -24.326973 -0.000000 -32.862282
LeftUpLeg -75.052762 -35.048940 -16.157187
LeftLeg 93.138789 -0.000000 -0.000000
LeftFoot 27.498253 15.799409 -1.777110
LeftToeBase -173.601886 -0.000000 0.000000
RightUpLeg 17.344901 11.576295 6.186978
RightLeg 2.397662 -0.000000 -0.000000
RightFoot -12.386907 3.582519 15.507725
RightToeBase 32.493335 -0.000000 -0.000000
285
root 19.001195 36.306036 -21.801756 -195.012217 48.513953 -182.743898
Spine 11.501637 44.328872 9.713483
Head 41.899464 40.841852 23.009917
LeftShoulder -22.051586 -23.212117 13.072495
LeftArm -40.163707 -6.373661 -21.776461
LeftForeArm -17.460455 -0.000000 2.326179
LeftHand -7.154010 -0.000000 2.231300
LeftHandThumb1 -26.253704 0.000000 33.147579
RightShoulder -10.452903 -13.488401 10.749408
RightArm 16.412981 -6.268923 44.086819
RightForeArm -57.594420 -0.000000 81.305340
RightHand 2.254767 0.000000 31.315249
RightHandThumb1 -24.326973 -0.000000 -32.862282
LeftUpLeg -75.089590 -35.088589 -16.269558
LeftLeg 93.129586 -0.000000 -0.000000
LeftFoot 27.479932 15.865167 -1.971560
LeftToeBase -174.005993 -0.000000 0.000000
RightUpLeg 17.388404 11.748778 6.212015
RightLeg 2.418863 -0.000000 -0.000000
RightFoot -12.314346 3.740443 15.420312
RightToeBase 32.380674 -0.000000 -0.000000
286
root 19.014226 36.306142 -21.828532 -195.051624 48.905840 -182.744342
Spine 11.436837 44.348958 9.767712
Head 42.257554 41.491698 23.283908
LeftShoulder -22.110559 -23.242059 13.173087
LeftArm -40.488670 -6.310272 -21.595482
LeftForeArm -17.680201 0.000000 2.291982
LeftHand -7.491957 0.000000 2.595290
LeftHandThumb1 -26.253704 0.000000 33.147579
RightShoulder -10.472803 -13.401477 10.678909
RightArm 16.237624 -6.264896 44.265846
RightForeArm -57.760307 -0.000000 81.521249
RightHand 2.225765 -0.000000 31.481028
RightHandThumb1 -24.326973 -0.000000 -32.862282
LeftUpLeg -75.103541 -35.128474 -16.374869
LeftLeg 93.149165 -0.000000 -0.000000
LeftFoot 27.555718 15.765140 -1.803235
LeftToeBase -173.786453 -0.000000 0.000000
RightUpLeg 17.458133 11.950279 6.261934
RightLeg 2.427759 -0.000000 -0.000000
RightFoot -12.196437 3.847519 15.248967
RightToeBase 31.855204 -0.000000 -0.000000
287
root 19.024661 36.303589 -21.854211 -195.075773 49.274436 -182.753926
Spine 11.352260 44.363881 9.785234
Head 42.557578 42.115275 23.529917
LeftShoulder -22.218496 -23.221822 13.277866
LeftArm -40.666922 -6.357857 -21.412740
LeftForeArm -18.117801 -0.000000 2.147248
LeftHand -7.366562 -0.000000 2.332188
LeftHandThumb1 -26.253704 0.000000 33.147579
RightShoulder -10.535836 -13.361101 10.603492
RightArm 16.154987 -6.279841 44.440252
RightForeArm -57.898432 -0.000000 81.702126
RightHand 2.400972 0.000000 31.680181
RightHandThumb1 -24.326973 -0.000000 -32.862282
LeftUpLeg -75.150994 -35.189968 -16.466107
LeftLeg 93.161342 -0.000000 -0.000000
LeftFoot 27.547984 15.796798 -1.888139
LeftToeBase -173.902331 -0.000000 0.000000
RightUpLeg 17.510522 12.251056 6.342430
RightLeg 2.440931 -0.000000 -0.000000
RightFoot -12.143444 3.824759 15.060066
RightToeBase 31.276151 -0.000000 -0.000000
